<svg xmlns="http://www.w3.org/2000/svg" width="500" height="500" style="width:100%;height:100%;transform:translate3d(0,0,0);content-visibility:visible" viewBox="0 0 500 500"><defs><clipPath id="c"><path d="M0 0h500v500H0z"/></clipPath><clipPath id="f"><path d="M0 0h500v500H0z"/></clipPath><clipPath id="d"><path d="M0 0h500v500H0z"/></clipPath><mask id="g" mask-type="alpha"><use xmlns:ns1="http://www.w3.org/1999/xlink" ns1:href="#a"/></mask><mask id="e" mask-type="alpha"><use xmlns:ns2="http://www.w3.org/1999/xlink" ns2:href="#b"/></mask><g id="a" class="primary design" style="display:none"><path class="primary"/><path fill-opacity="0" class="primary"/></g><g id="b" class="primary design" style="display:block"><path fill="#121331" d="M577.524-60v480.312H84V-60h493.524z" class="primary"/><path fill-opacity="0" stroke="#121331" stroke-width="0" d="M577.524-60v480.312H84V-60h493.524z" class="primary"/></g></defs><g clip-path="url(#c)"><g clip-path="url(#d)" style="display:block"><g class="primary design" style="display:none"><path class="primary"/><path class="primary"/></g><g class="primary design" style="display:block"><path fill="#121331" d="M395.879 262.709c-11.458 0-20.833 9.375-20.833 20.833l.625 112.292-271.459.625L103.587 125h112.917c11.458 0 20.833-9.375 20.833-20.833 0-11.458-9.375-20.833-20.833-20.833H103.587c-22.708 0-41.041 18.333-41.041 41.041v272.084c0 22.708 18.333 41.041 41.041 41.041h272.084c22.708 0 41.041-18.333 41.041-41.041V283.542c0-11.458-9.375-20.833-20.833-20.833z" class="primary"/></g><g class="primary design" style="display:block"><path fill="#121331" d="M416.712 62.5H303.796c-11.458 0-20.834 9.376-20.834 20.834s9.376 20.833 20.834 20.833h62.708l-131.25 131.25c-8.125 8.125-8.125 21.25 0 29.375 4.167 3.958 9.375 6.042 14.792 6.042a20.494 20.494 0 0 0 14.583-6.042l131.25-131.25v62.708c0 11.458 9.375 20.834 20.833 20.834 11.458 0 20.834-9.376 20.834-20.834V83.334c0-11.458-9.376-20.834-20.834-20.834z" class="primary"/></g><g class="primary design" mask="url(#e)" style="display:none"><path class="primary"/></g></g><g clip-path="url(#f)" style="display:none"><g class="primary design" style="display:none"><path fill="none" class="primary"/></g><g class="primary design" mask="url(#g)" style="display:none"><path class="primary"/></g><g class="primary design" style="display:none"><path class="primary"/><path class="primary"/></g></g></g></svg>
